# xmcd
#
# Track frame offsets:
#	150
#	16428
#	35245
#	63666
#	79394
#	96064
#	110900
#	121928
#	138159
#	152899
#	169926
#	187911
#	211434
#
# Disc length: 3113 seconds
#
# Revision: 2
# Processed by: cddbd v1.5.2PL0 Copyright (c) Steve Scherf et al.
# Submitted via: EasyCDDAExtractor 6.0.0.1
#
DISCID=bb0c270d
DTITLE=Bryan Adams - 18 Till I Die
DYEAR=1996
DGENRE=Blues
TTITLE0=The Only Thing That Looks Good On Me Is You
TTITLE1=Do To You
TTITLE2=Let's Make a Night To Remember
TTITLE3=18 Till I Die
TTITLE4=Star
TTITLE5=(I Wanna Be) Your Underwear
TTITLE6=We're Gonna Win
TTITLE7=I Think About You
TTITLE8=I'll Always Be Right There
TTITLE9=It Ain' a Party...If You Can't Come Around
TTITLE10=Black Pearl
TTITLE11=You're Still Beautifull To Me
TTITLE12=Have You Ever Really Loved a Woman?
EXTD=
EXTT0=
EXTT1=
EXTT2=
EXTT3=
EXTT4=
EXTT5=
EXTT6=
EXTT7=
EXTT8=
EXTT9=
EXTT10=
EXTT11=
EXTT12=
PLAYORDER=
